<svg width="201" height="32" viewBox="0 0 201 32" fill="none" xmlns="http://www.w3.org/2000/svg">
<g clip-path="url(#clip0_281_581)">
<path d="M46.8089 9.51857C47.9703 9.5173 49.1189 9.762 50.179 10.2366C51.2391 10.7111 52.1867 11.4048 52.9594 12.2719C53.8412 13.2186 54.5271 14.3304 54.9776 15.5432C55.4282 16.756 55.6344 18.0459 55.5845 19.3388C55.6611 22.0083 54.6934 24.6025 52.8872 26.5698C52.1342 27.4666 51.1971 28.191 50.1394 28.6937C49.0818 29.1964 47.9283 29.4656 46.7574 29.4831C45.65 29.4938 44.5558 29.2419 43.5646 28.7481C42.5733 28.2543 41.7132 27.5325 41.0547 26.6421V28.6192C41.055 28.7718 40.9946 28.9184 40.8868 29.0265C40.779 29.1347 40.6327 29.1956 40.48 29.1959H36.2374C36.0846 29.196 35.938 29.1354 35.8299 29.0275C35.7217 28.9196 35.6609 28.7732 35.6606 28.6204V3.08389C35.6607 2.93122 35.7213 2.7848 35.8292 2.67678C35.9371 2.56877 36.0834 2.508 36.2361 2.50781H40.478C40.5536 2.50768 40.6285 2.52244 40.6984 2.55126C40.7683 2.58007 40.8318 2.62237 40.8854 2.67574C40.9389 2.72912 40.9814 2.79251 41.0105 2.86232C41.0395 2.93212 41.0546 3.00697 41.0547 3.08257V10.0583C41.0549 10.2196 41.0994 10.3778 41.1833 10.5156C41.2671 10.6534 41.3872 10.7655 41.5303 10.8399C41.6735 10.9142 41.8343 10.9479 41.9953 10.9372C42.1562 10.9265 42.3112 10.8719 42.4433 10.7793C43.7348 9.92133 45.2588 9.48119 46.8089 9.51857V9.51857ZM40.9827 19.5391C40.9245 20.9412 41.3926 22.3143 42.2949 23.3889C42.681 23.8582 43.1668 24.2356 43.7169 24.4938C44.2671 24.7519 44.8678 24.8843 45.4755 24.8813C46.0958 24.8788 46.7084 24.7445 47.2728 24.4872C47.8371 24.2299 48.3403 23.8555 48.749 23.3889C49.7026 22.3471 50.2059 20.9707 50.1492 19.5595C50.1949 18.1284 49.709 16.731 48.7851 15.6372C48.3934 15.1447 47.8956 14.7469 47.3288 14.4735C46.7621 14.2 46.1409 14.058 45.5117 14.0579C44.8912 14.0534 44.2781 14.1923 43.7201 14.4637C43.1622 14.7351 42.6744 15.1317 42.2949 15.6226C41.396 16.7252 40.9296 18.1175 40.983 19.539L40.9827 19.5391Z" fill="#170C3A"/>
<path d="M78.2978 19.5185C78.3258 20.8367 78.0815 22.1465 77.5803 23.366C77.079 24.5855 76.3314 25.6884 75.3844 26.6058C73.3959 28.4549 70.7811 29.4828 68.0657 29.4828C65.3503 29.4828 62.7355 28.4549 60.7469 26.6058C58.8805 24.7161 57.8339 22.1669 57.8339 19.5108C57.8339 16.8547 58.8805 14.3056 60.7469 12.4158C62.7295 10.5549 65.3465 9.51904 68.0657 9.51904C70.7848 9.51904 73.4019 10.5549 75.3844 12.4158C76.3309 13.3368 77.0779 14.4426 77.5791 15.6645C78.0802 16.8863 78.3249 18.1981 78.2978 19.5185ZM63.2634 19.5185C63.2022 20.9318 63.6848 22.3149 64.612 23.3834C65.0387 23.8369 65.5506 24.2019 66.1183 24.4577C66.6861 24.7134 67.2987 24.8547 67.9211 24.8737C68.5435 24.8927 69.1636 24.7889 69.7458 24.5682C70.3281 24.3475 70.8613 24.0143 71.3148 23.5876C71.385 23.5219 71.4533 23.4536 71.519 23.3834C72.4461 22.3149 72.9288 20.9318 72.8677 19.5185C72.9269 18.098 72.4449 16.708 71.519 15.6291C70.6701 14.7134 69.4923 14.1724 68.2445 14.1249C66.9968 14.0775 65.7813 14.5275 64.8653 15.3761C64.7774 15.4573 64.6933 15.5424 64.6121 15.6294C63.6889 16.7097 63.2073 18.0986 63.2634 19.5185V19.5185Z" fill="#170C3A"/>
<path d="M96.0178 23.1676C96.0472 24.0426 95.8724 24.9124 95.507 25.708C95.1417 26.5036 94.596 27.2032 93.9132 27.7511C92.3935 28.9416 90.4998 29.5528 88.5708 29.4755C87.0396 29.4602 85.5206 29.1996 84.0719 28.7035C82.6607 28.2429 81.3368 27.5487 80.1554 26.6499C80.0766 26.5874 80.0246 26.4971 80.0103 26.3975C79.9959 26.298 80.0202 26.1967 80.0781 26.1144L81.8076 23.6542C81.8639 23.5748 81.9353 23.5072 82.0177 23.4554C82.1001 23.4035 82.192 23.3684 82.288 23.3521C82.3839 23.3358 82.4822 23.3385 82.5771 23.3602C82.6721 23.3819 82.7618 23.422 82.8412 23.4784L82.8489 23.4836C84.5488 24.7014 86.5842 25.363 88.6753 25.3774C89.2546 25.4071 89.8298 25.2638 90.3274 24.9656C90.5154 24.8513 90.6707 24.6903 90.7781 24.4983C90.8854 24.3062 90.9412 24.0896 90.9401 23.8695C90.9151 23.6057 90.8249 23.3522 90.6776 23.1318C90.5302 22.9115 90.3304 22.7313 90.0961 22.6075C89.3346 22.1369 88.512 21.7735 87.6514 21.5275C86.5863 21.1924 85.7678 20.9025 85.2066 20.6628C84.5382 20.3675 83.8946 20.019 83.2819 19.6208C82.5837 19.209 82.0107 18.615 81.6244 17.9023C81.2381 17.1897 81.0531 16.3853 81.0891 15.5755C81.0736 14.7279 81.2612 13.8889 81.6365 13.1287C82.0117 12.3685 82.5635 11.7092 83.2458 11.2061C84.8574 10.0249 86.8241 9.42951 88.8202 9.51847C91.1543 9.56725 93.4232 10.2972 95.3478 11.6187C95.4312 11.6728 95.491 11.7566 95.5149 11.8532C95.5388 11.9498 95.5251 12.0518 95.4766 12.1387L94.0248 14.7323C93.9748 14.8181 93.9084 14.8932 93.8293 14.9533C93.7502 15.0134 93.6601 15.0573 93.5641 15.0826C93.468 15.1078 93.3679 15.1139 93.2695 15.1005C93.1711 15.087 93.0763 15.0543 92.9906 15.0042L92.9751 14.9946C91.6701 14.1703 90.1638 13.72 88.6205 13.6929C86.9542 13.6929 86.121 14.1492 86.121 15.0617C86.1243 15.3151 86.2008 15.5622 86.3413 15.7731C86.4819 15.984 86.6804 16.1498 86.9129 16.2505C87.7571 16.6623 88.6355 16.9999 89.5381 17.2596C90.7631 17.6397 91.6278 17.9387 92.1478 18.1391C92.7894 18.4078 93.409 18.7262 94.0009 19.0914C95.3451 19.9046 96.0173 21.2633 96.0178 23.1676Z" fill="#170C3A"/>
<path d="M114.059 23.1674C114.088 24.0424 113.913 24.9122 113.548 25.7078C113.183 26.5034 112.637 27.203 111.954 27.7509C110.435 28.9417 108.541 29.553 106.612 29.4753C105.081 29.46 103.562 29.1994 102.113 28.7033C100.702 28.2427 99.3777 27.5485 98.1963 26.6497C98.1175 26.5872 98.0655 26.4969 98.0512 26.3973C98.0368 26.2978 98.0611 26.1965 98.119 26.1142L99.8485 23.654C99.9048 23.5746 99.9762 23.507 100.059 23.4552C100.141 23.4033 100.233 23.3682 100.329 23.3519C100.425 23.3356 100.523 23.3383 100.618 23.36C100.713 23.3817 100.803 23.4219 100.882 23.4782L100.89 23.4834C102.59 24.7012 104.625 25.3628 106.716 25.3772C107.296 25.407 107.871 25.2636 108.368 24.9654C108.556 24.8511 108.712 24.6901 108.819 24.498C108.926 24.3059 108.982 24.0894 108.981 23.8693C108.956 23.6055 108.866 23.352 108.718 23.1317C108.571 22.9114 108.371 22.7312 108.137 22.6073C107.375 22.1369 106.552 21.7735 105.692 21.5274C104.627 21.1923 103.808 20.9023 103.248 20.6626C102.579 20.3674 101.935 20.019 101.322 19.6206C100.624 19.2087 100.051 18.6147 99.6651 17.9021C99.2788 17.1895 99.0938 16.3852 99.1298 15.5755C99.1142 14.728 99.3018 13.889 99.677 13.1288C100.052 12.3687 100.604 11.7094 101.286 11.2061C102.897 10.0249 104.864 9.42951 106.86 9.51846C109.195 9.56732 111.464 10.2972 113.389 11.6185C113.472 11.6726 113.532 11.7565 113.556 11.8531C113.58 11.9497 113.566 12.0517 113.517 12.1385L112.066 14.7321C112.016 14.8179 111.949 14.893 111.87 14.9531C111.791 15.0131 111.701 15.0571 111.605 15.0823C111.509 15.1076 111.409 15.1137 111.311 15.1002C111.212 15.0868 111.118 15.0541 111.032 15.004L111.016 14.9944C109.711 14.1701 108.205 13.7198 106.662 13.6927C104.995 13.6927 104.162 14.149 104.162 15.0615C104.165 15.315 104.242 15.562 104.382 15.773C104.523 15.9839 104.721 16.1497 104.954 16.2503C105.798 16.6621 106.677 16.9997 107.579 17.2594C108.804 17.6395 109.669 17.9385 110.189 18.139C110.83 18.4076 111.449 18.7261 112.041 19.0913C113.389 19.9044 114.062 21.2631 114.059 23.1674Z" fill="#170C3A"/>
<path d="M133.587 29.1951H129.587C129.404 29.195 129.229 29.1222 129.1 28.9928C128.97 28.8634 128.898 28.6879 128.898 28.505V26.858C128.307 27.6733 127.531 28.3365 126.633 28.7929C125.735 29.2493 124.742 29.4859 123.735 29.4831C121.854 29.5438 120.016 28.91 118.573 27.7027C117.889 27.121 117.346 26.3917 116.985 25.5698C116.624 24.7478 116.455 23.8546 116.489 22.9576C116.436 22.0938 116.606 21.2308 116.984 20.4521C117.361 19.6734 117.934 19.0054 118.645 18.5127C120.087 17.5295 122.048 17.0358 124.544 17.0358H128.572V16.9277C128.572 14.8638 127.481 13.8328 125.298 13.8348C124.284 13.8488 123.28 14.0366 122.329 14.3903C121.603 14.6404 120.907 14.9718 120.254 15.378C120.103 15.4804 119.917 15.5194 119.738 15.4868C119.558 15.4541 119.398 15.3524 119.292 15.2034L117.496 12.604C117.467 12.5623 117.446 12.5152 117.435 12.4655C117.424 12.4158 117.423 12.3644 117.432 12.3143C117.441 12.2642 117.46 12.2163 117.487 12.1735C117.515 12.1307 117.551 12.0937 117.593 12.0647L117.594 12.0634C120.057 10.3673 122.987 9.47894 125.978 9.52134C128.041 9.4309 130.072 10.0524 131.732 11.2818C133.219 12.4552 133.962 14.3133 133.96 16.8562V28.8124C133.962 28.8608 133.954 28.9091 133.937 28.9546C133.92 29 133.894 29.0417 133.861 29.0772C133.828 29.1127 133.789 29.1413 133.745 29.1614C133.7 29.1815 133.653 29.1928 133.604 29.1945C133.599 29.195 133.593 29.1952 133.587 29.1951V29.1951ZM128.538 21.8189V20.8821H125.156C123 20.8821 121.921 21.5536 121.919 22.8964C121.904 23.2059 121.966 23.5142 122.101 23.7932C122.236 24.0721 122.439 24.3128 122.691 24.4932C123.353 24.904 124.126 25.0984 124.904 25.0492C125.827 25.0609 126.724 24.7495 127.441 24.169C127.797 23.8917 128.082 23.5342 128.272 23.1257C128.463 22.7172 128.554 22.2694 128.538 21.8189H128.538Z" fill="#170C3A"/>
<path d="M149.387 9.51844C150.548 9.51719 151.697 9.7619 152.757 10.2365C153.817 10.711 154.764 11.4047 155.537 12.2718C156.418 13.2185 157.104 14.3303 157.555 15.5431C158.005 16.7559 158.212 18.0458 158.162 19.3386C158.238 22.0081 157.271 24.6022 155.465 26.5696C154.711 27.4658 153.774 28.1897 152.717 28.6923C151.659 29.1949 150.506 29.4646 149.335 29.483C148.228 29.4937 147.134 29.2418 146.142 28.748C145.151 28.2541 144.291 27.5324 143.633 26.642V28.8144C143.633 28.9152 143.593 29.0119 143.522 29.0833C143.451 29.1547 143.355 29.195 143.254 29.1952H138.624C138.524 29.1955 138.427 29.1557 138.356 29.0847C138.284 29.0136 138.244 28.9171 138.244 28.8164V2.88862C138.243 2.78788 138.283 2.69117 138.354 2.61976C138.425 2.54835 138.522 2.50808 138.623 2.50781H143.252C143.302 2.50764 143.351 2.51731 143.397 2.53626C143.444 2.55522 143.485 2.58309 143.521 2.61828C143.556 2.65347 143.584 2.69528 143.603 2.74134C143.623 2.78739 143.633 2.83678 143.633 2.88668V10.4244C143.632 10.5515 143.667 10.6763 143.732 10.7851C143.798 10.8939 143.892 10.9827 144.005 11.0416C144.118 11.1006 144.244 11.1274 144.371 11.1194C144.498 11.1113 144.62 11.0685 144.724 10.9958C146.07 9.99593 147.711 9.47579 149.387 9.51844ZM143.56 19.539C143.502 20.9411 143.97 22.3144 144.873 23.3891C145.259 23.8585 145.745 24.236 146.295 24.4941C146.845 24.7522 147.446 24.8845 148.054 24.8814C148.674 24.8788 149.287 24.7443 149.851 24.487C150.415 24.2297 150.918 23.8554 151.327 23.3888C152.281 22.347 152.784 20.9705 152.727 19.5593C152.773 18.1282 152.287 16.7309 151.363 15.637C150.971 15.1445 150.474 14.7468 149.907 14.4733C149.34 14.1999 148.719 14.0578 148.09 14.0577C147.47 14.0533 146.857 14.1921 146.299 14.4635C145.741 14.7349 145.253 15.1314 144.874 15.6222C143.976 16.7256 143.509 18.1172 143.56 19.5387L143.56 19.539Z" fill="#170C3A"/>
<path d="M180.881 19.5185C180.909 20.8367 180.665 22.1465 180.163 23.366C179.662 24.5855 178.914 25.6884 177.967 26.6058C175.978 28.455 173.362 29.4828 170.646 29.4828C167.93 29.4828 165.314 28.455 163.324 26.6058C161.458 24.7161 160.411 22.1669 160.411 19.5108C160.411 16.8547 161.458 14.3056 163.324 12.4158C165.307 10.5546 167.924 9.51855 170.643 9.51855C173.363 9.51855 175.98 10.5546 177.962 12.4158C178.909 13.3366 179.657 14.4422 180.159 15.664C180.661 16.8858 180.907 18.1978 180.881 19.5185V19.5185ZM165.847 19.5185C165.785 20.9319 166.267 22.3152 167.195 23.3834C167.622 23.8369 168.134 24.2019 168.701 24.4576C169.269 24.7134 169.882 24.8547 170.504 24.8737C171.127 24.8927 171.747 24.7889 172.329 24.5682C172.911 24.3475 173.444 24.0143 173.898 23.5876C173.968 23.5219 174.036 23.4538 174.102 23.3834C175.029 22.3146 175.511 20.9317 175.451 19.5185C175.509 18.0981 175.027 16.7083 174.102 15.6291C173.253 14.7133 172.075 14.1722 170.828 14.1247C169.58 14.0771 168.364 14.5271 167.448 15.3757C167.36 15.4569 167.276 15.5419 167.195 15.6289C166.27 16.7081 165.788 18.098 165.846 19.5185H165.847Z" fill="#170C3A"/>
<path d="M188.246 10.0226L191.124 14.5257C191.151 14.5681 191.186 14.6047 191.228 14.6334C191.27 14.6621 191.316 14.6823 191.366 14.6929C191.415 14.7035 191.466 14.7043 191.516 14.6952C191.565 14.6861 191.613 14.6672 191.655 14.6398C191.7 14.6115 191.738 14.5742 191.767 14.5302L194.746 10.0164C194.781 9.96394 194.829 9.92092 194.884 9.89124C194.94 9.86156 195.002 9.84613 195.065 9.84635H200.084C200.159 9.8462 200.234 9.86087 200.303 9.88951C200.373 9.91816 200.436 9.96021 200.489 10.0133C200.542 10.0663 200.584 10.1294 200.613 10.1988C200.642 10.2682 200.657 10.3426 200.657 10.4177C200.658 10.5366 200.621 10.6526 200.552 10.7494L194.85 18.8553C194.756 18.9862 194.706 19.1428 194.706 19.3035C194.706 19.4641 194.756 19.6207 194.85 19.7516L200.815 28.2933C200.876 28.379 200.912 28.4798 200.92 28.5847C200.927 28.6896 200.905 28.7945 200.857 28.8878C200.808 28.9812 200.735 29.0594 200.645 29.1137C200.555 29.1681 200.452 29.1966 200.347 29.1961H195.208C195.146 29.1954 195.086 29.1806 195.032 29.1529C194.977 29.1252 194.93 29.0853 194.894 29.0363L191.549 24.3214C191.49 24.239 191.4 24.1834 191.3 24.1669C191.2 24.1504 191.097 24.1744 191.015 24.2335C190.979 24.2595 190.949 24.291 190.924 24.3269L187.681 29.0307C187.646 29.0813 187.599 29.1226 187.544 29.1513C187.49 29.18 187.429 29.1952 187.367 29.1957H182.438C182.333 29.1965 182.23 29.1686 182.14 29.1149C182.051 29.0613 181.977 28.984 181.928 28.8915C181.879 28.799 181.857 28.6949 181.863 28.5905C181.869 28.486 181.904 28.3854 181.964 28.2994L187.797 19.7815C187.886 19.6522 187.934 19.4993 187.935 19.3425C187.935 19.1857 187.889 19.0322 187.802 18.9019L182.3 10.7384C182.241 10.6522 182.208 10.5518 182.202 10.4479C182.196 10.344 182.219 10.2405 182.268 10.1485C182.316 10.0565 182.389 9.97941 182.478 9.92556C182.567 9.87172 182.669 9.8431 182.773 9.84277H187.926C187.989 9.84504 188.052 9.86254 188.107 9.89382C188.163 9.9251 188.211 9.96926 188.246 10.0226V10.0226Z" fill="#170C3A"/>
<path d="M25.9074 18.7249C25.4937 18.382 25.0684 18.0393 24.6528 17.7055L22.5309 15.9953L25.8507 13.3166C26.066 13.1472 26.2607 12.9529 26.4306 12.738C27.3482 11.5336 27.1001 9.97878 25.8288 8.95622C24.8886 8.1959 23.9464 7.43617 23.002 6.67702L15.6809 0.779813C15.0689 0.28015 14.3043 0.00499027 13.5142 6.72238e-05C12.7241 -0.00485582 11.9561 0.260755 11.3379 0.752751C7.35056 3.9585 4.10231 6.57317 1.13245 8.97549C0.55697 9.37792 0.164641 9.99221 0.0415497 10.6836C-0.0815415 11.3749 0.0746599 12.0869 0.475879 12.6632C0.649504 12.9161 0.867889 13.1351 1.12027 13.3095C1.46114 13.5857 1.80522 13.8643 2.14478 14.1336L4.45185 15.9921L3.24375 16.9644C2.53174 17.5392 1.80359 18.1269 1.10187 18.6977C0.766735 18.9387 0.492874 19.255 0.302344 19.6212C0.111813 19.9874 0.00993839 20.3932 0.0049232 20.806C-9.19883e-05 21.2187 0.0918927 21.6269 0.27347 21.9976C0.455047 22.3683 0.721141 22.6912 1.05032 22.9402C1.37318 23.2134 1.71079 23.4828 2.06391 23.767L4.84628 26.0085C6.96492 27.7147 9.15514 29.4777 11.3041 31.202C11.9089 31.7081 12.6698 31.9901 13.4583 32.0004C14.0256 31.9908 14.5834 31.8529 15.0898 31.597C15.3995 31.4319 15.6889 31.2312 15.952 30.999L17.6525 29.6246C20.3691 27.4421 23.1753 25.1843 25.9132 22.9618C26.2419 22.7148 26.5099 22.396 26.6969 22.0299C26.884 21.6637 26.9851 21.2597 26.9926 20.8486C26.9799 20.4365 26.8759 20.0322 26.6883 19.665C26.5006 19.2978 26.234 18.9767 25.9074 18.7249V18.7249ZM12.0271 10.0304C11.4482 10.3329 10.9146 10.715 10.4418 11.1657C10.2543 11.3281 10.0565 11.4957 9.85786 11.6497C9.10881 12.2348 8.35937 12.8417 7.62545 13.434L7.37028 13.6412C7.16151 13.8088 6.95274 13.9782 6.74397 14.1477L5.45136 13.1057C4.66074 12.4687 3.85982 11.8204 3.03284 11.1445L12.0271 3.89088V10.0304ZM12.5231 13.1936C12.721 13.0303 12.9227 12.8681 13.1334 12.7006C13.2259 12.6214 13.3426 12.5761 13.4644 12.5722C13.5861 12.5683 13.7055 12.6061 13.8029 12.6793C14.8364 13.5022 15.8803 14.3444 16.903 15.1692L17.9327 16.0011C16.7529 16.954 15.5696 17.9071 14.3828 18.8601L13.9131 19.2403L13.89 19.2616C13.7787 19.3655 13.6313 19.4219 13.4791 19.4189C13.3269 19.4159 13.1819 19.3537 13.0749 19.2454C11.7629 18.1925 10.4516 17.1373 9.14102 16.0797L9.04244 16.0011L12.5231 13.1936ZM14.9524 21.9782L15.0059 21.944C15.2923 21.7754 15.5682 21.5895 15.832 21.3873C16.8282 20.5947 17.8327 19.7848 18.818 18.9941L20.2317 17.8536L23.9428 20.843C23.9482 20.8477 23.954 20.852 23.9602 20.8559C23.9509 20.8617 23.9421 20.8681 23.9337 20.8752L14.9526 28.1146L14.9524 21.9782ZM17.6886 12.0885L17.4939 11.9315C16.903 11.4534 16.2961 10.9646 15.6807 10.4843C15.479 10.3367 15.2651 10.2065 15.0414 10.095C15.006 10.0757 14.9719 10.0573 14.9364 10.0396C14.9306 7.99952 14.9306 5.98259 14.9306 3.87104L23.1199 10.4712L23.955 11.1407C23.5709 11.4551 23.1837 11.7657 22.8054 12.0692L20.2318 14.1408L18.4508 12.7057C18.1956 12.5041 17.9398 12.2953 17.6886 12.0885ZM6.74203 17.8465L7.5842 18.5246C8.755 19.4727 9.96705 20.4487 11.1701 21.3985C11.4262 21.5941 11.6946 21.773 11.9738 21.9339L12.0303 21.9675V28.1005L3.02085 20.8448C4.11821 19.9581 5.2175 19.073 6.31871 18.1893L6.74203 17.8465Z" fill="#170C3A"/>
</g>
<defs>
<clipPath id="clip0_281_581">
<rect width="200.921" height="32" fill="white"/>
</clipPath>
</defs>
</svg>
