<svg width="101" height="26" viewBox="0 0 88 22" xmlns="http://www.w3.org/2000/svg" color="#24B6EA"><path d="M28.6143 21.7104H44.2762V17.9068H32.7589V12.5225H41.8366V8.72223H32.7589V4.08669H44.283V0.269775H28.6143V21.7104Z" fill="currentColor"></path><path d="M63.1737 12.1264C63.8696 11.5003 64.4205 10.7331 64.7886 9.87738C65.1567 9.02164 65.3334 8.09753 65.3066 7.16815C65.3177 6.25587 65.142 5.35075 64.7899 4.50725C64.4378 3.66376 63.9167 2.89929 63.2579 2.25973C61.8448 0.944426 59.9664 0.227736 58.0249 0.263089H48.9573V21.7037H53.1019V14.0499H57.3207L61.6371 21.7037H66.3546L61.4922 13.2446C62.1029 12.9514 62.6689 12.575 63.1737 12.1264V12.1264ZM58.0249 10.2662H53.1019V4.07H58.0249C59.8984 4.07 61.162 5.3146 61.162 7.16815C61.162 9.0217 59.9153 10.2662 58.0249 10.2662Z" fill="currentColor"></path><path d="M83.8387 0.269933V13.0485C83.8426 14.4179 83.2989 15.7334 82.3257 16.709C81.8595 17.1798 81.3035 17.5549 80.6898 17.8126C80.0761 18.0703 79.4168 18.2055 78.75 18.2105C78.0831 18.2154 77.4219 18.09 76.8044 17.8415C76.1868 17.5929 75.6252 17.2261 75.1518 16.7622C74.1904 15.7656 73.6661 14.4346 73.6928 13.0584V0.279926H69.5515V13.0584C69.5515 18.3396 73.3423 22.0001 78.7843 22.0001C84.2262 22.0001 88.0001 18.3196 88.0001 13.0451V0.266602L83.8387 0.269933Z" fill="currentColor"></path><path d="M13.8997 10.6856L15.8742 12.6389L18.6137 9.93348C18.6596 10.2733 18.6832 10.6156 18.6845 10.9584C18.6852 12.3802 18.2589 13.7702 17.4595 14.9527C16.6602 16.1352 15.5237 17.057 14.1938 17.6016C12.8639 18.1461 11.4003 18.2889 9.98826 18.012C8.57617 17.735 7.27898 17.0507 6.26075 16.0456C5.24251 15.0404 4.54899 13.7597 4.26788 12.3653C3.98677 10.9709 4.13071 9.52546 4.68149 8.21185C5.23227 6.89823 6.16515 5.77543 7.36215 4.98546C8.55914 4.1955 9.96647 3.77384 11.4061 3.77384C12.4681 3.77468 13.5175 4.00169 14.4826 4.43938L17.3805 1.57754C15.568 0.532987 13.5047 -0.0117581 11.4061 0.000192477C5.00387 0.000192477 0 4.81876 0 10.9817C0 17.1447 5.01061 21.9633 11.4061 21.9633C17.8017 21.9633 22.8123 17.1447 22.8123 10.9817C22.8123 10.7055 22.8123 10.4293 22.782 10.1565L25.3159 12.6622L27.2905 10.7088L20.5951 4.09662L13.8997 10.6856Z" fill="currentColor"></path></svg>