<svg xmlns="http://www.w3.org/2000/svg" viewBox="0 0 229 21">
  <path fill="#609" fill-rule="evenodd"
        d="M99.856 6.804c3.656 0 6.62 3.168 6.62 7.078 0 3.913-2.964 7.083-6.62 7.083-3.655 0-6.62-3.17-6.62-7.08 0-3.913 2.965-7.081 6.62-7.081zm0 9.876c1.441 0 2.613-1.253 2.613-2.795 0-1.545-1.172-2.796-2.613-2.796-1.443 0-2.612 1.25-2.612 2.796 0 1.542 1.169 2.795 2.612 2.795zM73.96 6.952c.885 0 1.598.763 1.598 1.71v10.45c0 .944-.713 1.709-1.598 1.709h-1.336c-.886 0-1.6-.765-1.6-1.71V8.662c0-.946.714-1.71 1.6-1.71h1.336zm-5.548.616c.564.224 1.206 1.128.664 2.194L63.77 19.815c-.452.886-1.28 1.006-1.496 1.005l-1.28.001c-.218 0-1.042-.12-1.499-1.006L54.191 9.762c-.542-1.066.1-1.97.664-2.194l1.41-.674c.762-.365 1.673.02 2.015.868l3.326 7.157h.051l3.33-7.157c.343-.849 1.253-1.233 2.014-.868l1.41.674zm23.3 0c.567.224 1.207 1.128.663 2.194l-5.304 10.053c-.456.886-1.28 1.005-1.496 1.005h-1.281c-.219 0-1.041-.119-1.497-1.005L77.493 9.762c-.544-1.066.098-1.97.667-2.194l1.407-.674c.76-.365 1.671.02 2.013.868l3.328 7.157h.05l3.33-7.157c.34-.849 1.252-1.233 2.014-.87l1.41.676zM73.28 0c1.434 0 2.592 1.24 2.592 2.773 0 1.535-1.158 2.776-2.592 2.776-1.432 0-2.593-1.241-2.593-2.776C70.687 1.24 71.848 0 73.28 0zm51.944 17.203c.369 0 .664.116.886.347.221.23.331.529.331.898v.968c0 .369-.11.673-.331.912-.222.24-.517.36-.886.36h-7.965c-.48 0-.885-.166-1.217-.498a1.655 1.655 0 0 1-.497-1.217V9.1c0-.536.189-1 .566-1.397.378-.397.862-.595 1.453-.595h7.632c.37 0 .665.115.886.345.221.231.332.531.332.9v.968c0 .37-.11.673-.332.913-.22.24-.516.36-.886.36h-5.392v1.492h3.374c.35 0 .631.112.844.332.211.222.317.517.317.885v.997c0 .369-.106.659-.317.87-.213.213-.494.319-.844.319h-3.374v1.714h5.42zm18.02-9.735c.267.258.428.654.483 1.189l.996 10.566c.037.46-.093.848-.387 1.16-.295.315-.673.48-1.134.499l-.858.028c-.442.017-.82-.093-1.133-.332-.314-.24-.49-.618-.526-1.135l-.249-5.919a9.371 9.371 0 0 1 0-1.437h-.028l-.276.898c-.11.36-.213.65-.304.872l-1.134 3.015c-.11.294-.3.566-.567.816-.268.248-.632.372-1.093.372h-.94c-.351 0-.683-.092-.996-.276-.313-.184-.544-.479-.69-.885l-1.107-2.987a10.508 10.508 0 0 1-.249-.815 41.875 41.875 0 0 1-.221-.845h-.028c.017.426.017.858 0 1.3l-.305 5.836c-.036.516-.211.91-.525 1.175-.314.268-.692.383-1.134.347l-.968-.056a1.55 1.55 0 0 1-1.05-.511c-.278-.305-.388-.715-.333-1.231l1.079-10.482c.037-.48.221-.876.554-1.19.33-.313.736-.47 1.216-.47h1.52c.444 0 .84.096 1.19.29.35.194.599.512.747.955l1.88 5.614h.029l1.936-5.78c.147-.443.414-.752.802-.927a2.538 2.538 0 0 1 1.272-.207l1.548.11c.388.037.715.185.983.443zm13.856.345c.636.36 1.147.84 1.535 1.438.387.6.58 1.351.58 2.255 0 .498-.078 1.042-.235 1.631-.156.59-.47 1.134-.94 1.633-.47.497-1.134.917-1.991 1.258-.857.342-1.996.512-3.415.512h-.54c-.157 0-.319-.01-.484-.028v2.849c0 .442-.157.798-.47 1.064-.314.268-.701.401-1.162.401h-.996c-.443 0-.816-.133-1.12-.401-.304-.266-.456-.622-.456-1.064V8.85c0-.368.115-.7.345-.996.23-.295.522-.498.872-.609a9.017 9.017 0 0 1 1.798-.345 19.922 19.922 0 0 1 1.935-.096c.886 0 1.739.077 2.56.234.82.157 1.548.415 2.184.774zm-2.558 5.062c.387-.286.58-.705.58-1.258 0-.517-.193-.886-.58-1.107-.387-.221-.969-.332-1.743-.332h-.525c-.221 0-.444.02-.664.055v3.043c.258.018.48.028.664.028h.415c.847 0 1.466-.143 1.853-.429zm16.4 2.42l2.517 2.987c.313.37.42.76.319 1.176-.102.414-.365.715-.789.898l-.747.305a2.577 2.577 0 0 1-1.369.221c-.452-.055-.834-.295-1.147-.72l-2.71-3.926h-1.494v3.125c0 .442-.152.798-.457 1.064-.304.268-.687.402-1.147.402h-.996c-.443 0-.821-.134-1.135-.402-.313-.266-.47-.622-.47-1.064V8.85c0-.425.116-.77.346-1.037a1.87 1.87 0 0 1 .872-.568c.534-.165 1.166-.28 1.894-.345a22.746 22.746 0 0 1 2.005-.097c.886 0 1.733.074 2.544.222.811.148 1.537.4 2.172.76.636.36 1.143.839 1.521 1.438.378.6.567 1.35.567 2.255 0 .81-.193 1.548-.581 2.212-.388.664-.958 1.199-1.715 1.604zm-2.502-2.558c.47-.23.705-.64.705-1.231 0-.424-.203-.765-.61-1.024-.404-.257-.93-.387-1.575-.387h-.706c-.211 0-.456.019-.732.056v2.932h1.079c.756 0 1.369-.115 1.839-.346zm17.105 4.466c.369 0 .664.116.886.347.221.23.331.529.331.898v.968c0 .369-.11.673-.331.912-.222.24-.517.36-.886.36h-7.965c-.48 0-.885-.166-1.217-.498a1.651 1.651 0 0 1-.497-1.217V9.1c0-.536.188-1 .566-1.397.378-.397.862-.595 1.452-.595h7.633c.37 0 .664.115.886.345.221.231.331.531.331.9v.968c0 .37-.11.673-.331.913-.222.24-.516.36-.886.36h-5.393v1.492h3.375c.35 0 .631.112.844.332.211.222.317.517.317.885v.997c0 .369-.106.659-.317.87-.213.213-.494.319-.844.319h-3.375v1.714h5.421zm12.253-3.982a4.107 4.107 0 0 1 1.424 1.202c.378.509.567 1.176.567 2.006 0 .812-.157 1.508-.47 2.089a3.872 3.872 0 0 1-1.286 1.41c-.545.36-1.185.622-1.922.788-.737.166-1.521.25-2.351.25-.756 0-1.54-.084-2.351-.25a8.074 8.074 0 0 1-2.24-.802c-.794-.406-1.006-1.024-.637-1.853l.332-.72c.332-.755.968-.95 1.908-.58.48.203 1 .382 1.563.54a5.934 5.934 0 0 0 1.59.234c.59 0 1-.073 1.232-.22.23-.148.345-.351.345-.61 0-.202-.156-.377-.47-.525a7.13 7.13 0 0 0-1.12-.402c-.433-.118-.89-.252-1.37-.4a13.21 13.21 0 0 1-1.465-.526c-.737-.35-1.323-.825-1.756-1.424-.434-.599-.65-1.332-.65-2.199 0-.774.16-1.438.484-1.992a4.203 4.203 0 0 1 1.271-1.369 5.484 5.484 0 0 1 1.813-.788 8.882 8.882 0 0 1 2.101-.248c.72 0 1.439.073 2.158.221.719.148 1.364.341 1.936.58.368.149.64.365.816.65.175.287.188.67.041 1.149l-.221.69c-.11.388-.345.65-.705.789-.36.138-.78.125-1.258-.042a13.923 13.923 0 0 0-1.495-.442 6.517 6.517 0 0 0-1.465-.166c-.554 0-.946.07-1.176.207-.23.139-.345.328-.345.568 0 .277.202.502.609.677.405.176 1.133.392 2.184.65.424.11.834.231 1.23.36.397.13.78.295 1.149.498zm17.728 5.117c.073.147.125.294.152.442.028.147.042.295.042.443 0 .313-.088.6-.263.857-.175.258-.476.433-.899.525l-1.217.25c-.424.091-.806.059-1.148-.098-.34-.156-.586-.437-.733-.843l-.525-1.466h-5.31l-.526 1.355c-.37.923-.996 1.272-1.881 1.051l-1.271-.332c-.536-.148-.845-.437-.928-.871a2.04 2.04 0 0 1 .153-1.258L205.68 8.27c.202-.46.479-.792.829-.996.35-.202.793-.304 1.328-.304h1.3c.46 0 .866.096 1.217.29.35.194.627.503.83.927l4.342 10.15zm-8.768-2.96h3.126l-1.521-4.453h-.028l-1.577 4.453zm20.924-.954c.378.507.566 1.176.566 2.005 0 .812-.156 1.507-.47 2.088a3.87 3.87 0 0 1-1.285 1.41c-.545.36-1.186.622-1.923.79-.738.165-1.521.248-2.352.248-.755 0-1.538-.083-2.35-.249a8.122 8.122 0 0 1-2.24-.802c-.793-.406-1.005-1.023-.636-1.854l.332-.719c.331-.755.968-.949 1.908-.58.48.203 1 .383 1.562.54a5.942 5.942 0 0 0 1.59.235c.591 0 1-.074 1.232-.222.23-.148.345-.35.345-.609 0-.202-.157-.378-.47-.525a7.163 7.163 0 0 0-1.12-.401c-.433-.12-.89-.254-1.369-.4a13.229 13.229 0 0 1-1.466-.526c-.737-.35-1.323-.825-1.756-1.425-.433-.599-.65-1.332-.65-2.199 0-.774.161-1.437.484-1.991a4.197 4.197 0 0 1 1.272-1.37 5.451 5.451 0 0 1 1.812-.787 8.888 8.888 0 0 1 2.101-.25c.72 0 1.439.075 2.158.222.72.147 1.364.342 1.936.58.369.148.64.365.816.65.175.287.189.67.042 1.148l-.222.691c-.11.388-.345.651-.705.79-.36.138-.78.124-1.258-.043a13.737 13.737 0 0 0-1.494-.442 6.53 6.53 0 0 0-1.466-.166c-.553 0-.945.07-1.176.208-.23.138-.345.327-.345.567 0 .276.203.502.609.678.405.175 1.133.392 2.185.65.423.11.834.23 1.23.358.397.13.778.296 1.148.499a4.099 4.099 0 0 1 1.425 1.203zM14.875 7.37c.269.26.432.659.487 1.198l1.004 10.641c.037.464-.094.855-.39 1.17-.298.315-.68.483-1.143.5l-.863.03c-.446.017-.827-.094-1.143-.335-.315-.242-.491-.622-.528-1.142l-.251-5.962a9.508 9.508 0 0 1 0-1.448h-.028l-.278.906c-.112.361-.215.654-.307.876l-1.142 3.038c-.111.296-.302.57-.571.821-.27.251-.636.375-1.1.375h-.948c-.353 0-.687-.091-1.002-.278-.317-.185-.549-.482-.696-.891L4.86 13.86a10.006 10.006 0 0 1-.25-.822 45.598 45.598 0 0 1-.224-.849H4.36c.017.427.017.864 0 1.31l-.307 5.877c-.038.52-.214.915-.53 1.184-.315.27-.696.385-1.141.349l-.976-.056a1.558 1.558 0 0 1-1.057-.516c-.28-.306-.39-.72-.335-1.24L1.1 8.542c.037-.482.223-.882.557-1.198a1.718 1.718 0 0 1 1.226-.473h1.532c.446 0 .845.097 1.198.292.352.195.603.515.752.961l1.895 5.655h.027l1.95-5.822c.149-.446.418-.756.808-.933.39-.177.817-.246 1.28-.21l1.56.113c.39.037.72.185.99.445zm13.942 9.805c.371 0 .668.116.892.349.222.232.334.533.334.905v.975c0 .371-.112.678-.334.92-.224.241-.521.361-.892.361h-8.022c-.484 0-.892-.167-1.226-.501a1.665 1.665 0 0 1-.502-1.226V9.014c0-.538.191-1.007.572-1.406.38-.4.867-.599 1.462-.599h7.688c.371 0 .668.116.892.348.223.232.334.534.334.906v.974c0 .372-.111.678-.334.92-.224.241-.521.362-.892.362h-5.432v1.504h3.399c.352 0 .636.112.85.334.213.223.32.52.32.892v1.003c0 .372-.107.664-.32.877-.214.214-.498.32-.85.32h-3.399v1.727h5.46zM43.34 6.87c.424 0 .793.14 1.108.418.313.278.47.631.47 1.057v6.463c0 2.08-.585 3.627-1.756 4.639-1.17 1.012-2.757 1.518-4.762 1.518-2.006 0-3.538-.502-4.596-1.504-1.059-1.003-1.59-2.553-1.59-4.653V8.345c0-.426.16-.78.475-1.057a1.67 1.67 0 0 1 1.143-.418h1.224c.428 0 .799.14 1.115.418.316.278.474.631.474 1.057v6.073c0 .948.144 1.644.434 2.09.29.446.79.669 1.502.669.73 0 1.239-.223 1.53-.669.289-.446.433-1.142.433-2.09V8.345c0-.426.152-.78.457-1.057a1.603 1.603 0 0 1 1.121-.418h1.218z"/>
</svg>
